<svg xmlns="http://www.w3.org/2000/svg" width="27.25" height="27.25" viewBox="0 0 27.25 27.25">
  <path id="earth-africa-solid" d="M9.463,3.364,10,4.29a1.677,1.677,0,0,1,.224.846v2.2a.786.786,0,0,0,1.4.49l.724-.9A.846.846,0,0,1,13.385,6.7l.809.4a1.31,1.31,0,0,0,1.512-.245l.208-.208a.51.51,0,0,1,.585-.1l1.554.777A1.22,1.22,0,0,1,17.8,9.6l-1.884.468a2.164,2.164,0,0,1-1.192-.048l-1.7-.569a1.7,1.7,0,0,0-1.575.255L9.367,11.283a2.127,2.127,0,0,0-.852,1.7v1.49a2.555,2.555,0,0,0,2.555,2.555h1.7a.854.854,0,0,1,.852.852v2.555a1.7,1.7,0,0,0,3.066,1.022l1.362-1.815a3.417,3.417,0,0,0,.681-2.044v-.644a.445.445,0,0,1,.341-.436l.282-.069a1.426,1.426,0,0,0,.665-2.39l-1.783-1.783a.5.5,0,0,1,0-.713,1.127,1.127,0,0,1,1.16-.271l.75.25a1.388,1.388,0,0,0,1.676-.692.915.915,0,0,1,1.006-.49l1.458.293A11.08,11.08,0,0,0,9.463,3.364ZM0,13.625A13.625,13.625,0,1,1,13.625,27.25,13.625,13.625,0,0,1,0,13.625Z" fill="#202020"/>
</svg>
