<svg xmlns="http://www.w3.org/2000/svg" width="43.479" height="42.393" viewBox="0 0 43.479 42.393">
  <path id="github" d="M14.543,42.134c0,.175-.2.316-.456.316-.289.026-.491-.114-.491-.316,0-.175.2-.316.456-.316C14.315,41.793,14.543,41.933,14.543,42.134Zm-2.726-.394c-.061.175.114.377.377.43a.411.411,0,0,0,.543-.175c.053-.175-.114-.377-.377-.456A.45.45,0,0,0,11.816,41.74Zm3.875-.149c-.254.061-.43.228-.4.43.026.175.254.289.517.228s.43-.228.4-.4S15.945,41.565,15.691,41.591ZM21.459,8A21.02,21.02,0,0,0,0,29.389,21.977,21.977,0,0,0,14.858,50.357c1.122.2,1.517-.491,1.517-1.061,0-.543-.026-3.541-.026-5.382,0,0-6.136,1.315-7.425-2.612,0,0-1-2.551-2.437-3.208,0,0-2.007-1.376.14-1.35a4.627,4.627,0,0,1,3.384,2.262c1.92,3.384,5.137,2.411,6.39,1.832a4.872,4.872,0,0,1,1.4-2.954c-4.9-.543-9.844-1.254-9.844-9.686a6.644,6.644,0,0,1,2.069-5.163,8.282,8.282,0,0,1,.228-5.952c1.832-.57,6.048,2.367,6.048,2.367a20.709,20.709,0,0,1,11.01,0s4.216-2.945,6.048-2.367a8.278,8.278,0,0,1,.228,5.952c1.4,1.552,2.262,2.761,2.262,5.163,0,8.459-5.163,9.134-10.063,9.686a5.184,5.184,0,0,1,1.49,4.067c0,2.954-.026,6.609-.026,7.328,0,.57.4,1.262,1.517,1.061A21.775,21.775,0,0,0,43.479,29.389C43.479,17.231,33.617,8,21.459,8ZM8.52,38.234c-.114.088-.088.289.061.456.14.14.342.2.456.088.114-.088.088-.289-.061-.456C8.836,38.181,8.634,38.12,8.52,38.234Zm-.947-.71c-.061.114.026.254.2.342a.261.261,0,0,0,.377-.061c.061-.114-.026-.254-.2-.342C7.775,37.41,7.635,37.436,7.574,37.524Zm2.84,3.121c-.14.114-.088.377.114.543.2.2.456.228.57.088.114-.114.061-.377-.114-.543C10.791,40.53,10.528,40.5,10.414,40.644Zm-1-1.289c-.14.088-.14.316,0,.517s.377.289.491.2a.4.4,0,0,0,0-.543C9.783,39.329,9.555,39.242,9.415,39.356Z" transform="translate(0 -8)" fill="#ffc400"/>
</svg>
