<svg xmlns="http://www.w3.org/2000/svg" width="27.948" height="27.25" viewBox="0 0 27.948 27.25">
  <path id="github-btn" d="M9.348,29.941c0,.113-.13.2-.293.2-.186.017-.316-.073-.316-.2,0-.113.13-.2.293-.2C9.2,29.722,9.348,29.812,9.348,29.941ZM7.6,29.688c-.039.113.073.242.242.276a.264.264,0,0,0,.349-.113c.034-.113-.073-.242-.242-.293A.289.289,0,0,0,7.6,29.688Zm2.491-.1c-.163.039-.276.147-.259.276.017.113.163.186.332.146s.276-.146.259-.259S10.25,29.575,10.086,29.592ZM13.794,8A13.511,13.511,0,0,0,0,21.749,14.127,14.127,0,0,0,9.551,35.227c.721.13.975-.316.975-.682,0-.349-.017-2.276-.017-3.46,0,0-3.944.845-4.773-1.679,0,0-.642-1.64-1.566-2.062,0,0-1.29-.885.09-.868A2.974,2.974,0,0,1,6.435,27.93a2.979,2.979,0,0,0,4.108,1.178,3.132,3.132,0,0,1,.9-1.9c-3.15-.349-6.328-.806-6.328-6.226a4.27,4.27,0,0,1,1.33-3.319,5.324,5.324,0,0,1,.147-3.826c1.178-.366,3.888,1.521,3.888,1.521a13.311,13.311,0,0,1,7.077,0s2.71-1.893,3.888-1.521a5.321,5.321,0,0,1,.147,3.826,4.38,4.38,0,0,1,1.454,3.319c0,5.437-3.319,5.871-6.469,6.226a3.332,3.332,0,0,1,.958,2.614c0,1.9-.017,4.249-.017,4.711,0,.366.259.811.975.682a14,14,0,0,0,9.455-13.467A13.816,13.816,0,0,0,13.794,8ZM5.477,27.434c-.073.056-.056.186.039.293.09.09.22.13.293.056.073-.056.056-.186-.039-.293C5.68,27.4,5.55,27.361,5.477,27.434Zm-.609-.456c-.039.073.017.163.13.22a.168.168,0,0,0,.242-.039c.039-.073-.017-.163-.13-.22C5,26.9,4.908,26.921,4.868,26.978Zm1.826,2.006c-.09.073-.056.242.073.349.13.13.293.146.366.056.073-.073.039-.242-.073-.349C6.936,28.91,6.767,28.893,6.694,28.984Zm-.642-.828c-.09.056-.09.2,0,.332s.242.186.316.13a.257.257,0,0,0,0-.349C6.288,28.138,6.142,28.082,6.052,28.155Z" transform="translate(0 -8)" fill="#202020"/>
</svg>
