<svg xmlns="http://www.w3.org/2000/svg" width="43" height="43" viewBox="0 0 43 43">
  <g id="Group_10" data-name="Group 10" transform="translate(-960 -3311)">
    <g id="Group_9" data-name="Group 9" transform="translate(0 -3)">
      <circle id="Ellipse_1" data-name="Ellipse 1" cx="21.5" cy="21.5" r="21.5" transform="translate(960 3314)" fill="#ffc400"/>
    </g>
    <path id="linkedin-in" d="M4.517,20.175H.333V6.705H4.517ZM2.423,4.868A2.434,2.434,0,1,1,4.846,2.423,2.443,2.443,0,0,1,2.423,4.868ZM20.17,20.175H16V13.618c0-1.563-.032-3.567-2.175-3.567-2.175,0-2.508,1.7-2.508,3.454v6.669H7.133V6.705h4.012V8.543H11.2a4.4,4.4,0,0,1,3.958-2.175c4.233,0,5.012,2.788,5.012,6.408v7.4Z" transform="translate(971.913 3321.913)" fill="#202020"/>
  </g>
</svg>
