<svg xmlns="http://www.w3.org/2000/svg" width="43" height="43" viewBox="0 0 43 43">
  <g id="Group_7" data-name="Group 7" transform="translate(-960 -3314)">
    <circle id="Ellipse_1" data-name="Ellipse 1" cx="21.5" cy="21.5" r="21.5" transform="translate(960 3314)" fill="#ffc400"/>
    <path id="envelope-solid" d="M2.309,64A2.309,2.309,0,0,0,.924,68.156l10.467,7.85a1.544,1.544,0,0,0,1.847,0L23.7,68.156A2.309,2.309,0,0,0,22.319,64ZM0,69.387V79.393a3.081,3.081,0,0,0,3.079,3.079H21.55a3.081,3.081,0,0,0,3.079-3.079V69.387l-10.467,7.85a3.074,3.074,0,0,1-3.694,0Z" transform="translate(969.186 3262.264)" fill="#202020"/>
  </g>
</svg>
