<svg xmlns="http://www.w3.org/2000/svg" width="43" height="43" viewBox="0 0 43 43">
  <g id="Group_6" data-name="Group 6" transform="translate(-960 -3374)">
    <circle id="Ellipse_2" data-name="Ellipse 2" cx="21.5" cy="21.5" r="21.5" transform="translate(960 3374)" fill="#ffc400"/>
    <path id="phone-solid_1_" data-name="phone-solid (1)" d="M7.167,1.048A1.733,1.733,0,0,0,5.107.039L1.282,1.082A1.744,1.744,0,0,0,0,2.76,19.473,19.473,0,0,0,19.471,22.231a1.744,1.744,0,0,0,1.678-1.282l1.043-3.825a1.733,1.733,0,0,0-1.008-2.06l-4.172-1.739a1.733,1.733,0,0,0-2.012.5l-1.756,2.143A14.689,14.689,0,0,1,6.259,8.988L8.4,7.237a1.735,1.735,0,0,0,.5-2.012L7.167,1.052Z" transform="translate(970.373 3384.396)" fill="#202020"/>
  </g>
</svg>
